PathFileType	4	(X/Y/Z)	markers_results_mono.trc
DataRate	CameraRate	NumFrames	NumMarkers	Units	OrigDataRate	OrigDataStartFrame	OrigNumFrames
12.500000	12.500000	15	22	m	12.500000	2262	3015
Frame#	Time	Nose			Neck			LShoulder			RShoulder			LElbow			RElbow			LWrist			RWrist			LHip			RHip			LKnee			RKnee			LAnkle			RAnkle			LEye			REye			LThumb			LIndex			LPinky			RThumb			RIndex			RPinky
		X1	Y1	Z1	X2	Y2	Z2	X3	Y3	Z3	X4	Y4	Z4	X5	Y5	Z5	X6	Y6	Z6	X7	Y7	Z7	X8	Y8	Z8	X9	Y9	Z9	X10	Y10	Z10	X11	Y11	Z11	X12	Y12	Z12	X13	Y13	Z13	X14	Y14	Z14	X15	Y15	Z15	X16	Y16	Z16	X17	Y17	Z17	X18	Y18	Z18	X19	Y19	Z19	X20	Y20	Z20	X21	Y21	Z21	X22	Y22	Z22

2262	180.880000	-0.004674	-0.233178	0.103136	-0.013444	-0.323097	0.115838	-0.005953	-0.319901	0.118320	-0.020935	-0.326294	0.113356	-0.020895	-0.163604	0.025519	-0.028285	-0.195963	0.021825	0.062118	-0.176571	0.025136	0.070287	-0.136189	0.040820	-0.035449	-0.094694	0.044244	-0.047642	-0.089083	0.042466	-0.048891	-0.096022	-0.006429	-0.009786	-0.080221	-0.033026	-0.136609	-0.042201	-0.144098	-0.126731	0.004556	-0.136994	-0.004674	-0.233178	0.103136	-0.004674	-0.233178	0.103136	0.062118	-0.176571	0.025136	0.062118	-0.176571	0.025136	0.062118	-0.176571	0.025136	0.070287	-0.136189	0.040820	0.070287	-0.136189	0.040820	0.070287	-0.136189	0.040820
2263	180.960000	-0.012779	-0.252639	0.104334	-0.021549	-0.338169	0.120361	-0.015080	-0.333851	0.119944	-0.028018	-0.342488	0.120778	-0.030612	-0.167458	0.025094	-0.032788	-0.190734	0.024191	0.049287	-0.172972	0.026282	0.055091	-0.134447	0.038798	-0.043575	-0.107281	0.043491	-0.050554	-0.096521	0.038689	-0.052095	-0.088040	0.004318	-0.017036	-0.065790	-0.021940	-0.144128	-0.020185	-0.133058	-0.127516	0.041615	-0.113059	-0.014290	-0.278812	0.071999	-0.015267	-0.299515	0.080438	0.043770	-0.250382	-0.232078	0.045540	-0.215601	-0.226238	0.111612	1.072610	0.072836	0.031169	-0.533396	-0.591705	0.023617	-0.704017	-0.444843	0.020360	-0.778440	-0.375161
2264	181.040000	-0.019069	-0.257947	0.107412	-0.026477	-0.340446	0.125045	-0.021046	-0.334148	0.123095	-0.031909	-0.346743	0.126994	-0.037828	-0.162651	0.024786	-0.034192	-0.178868	0.026197	0.039552	-0.158543	0.027683	0.044762	-0.121735	0.041597	-0.050073	-0.109583	0.044564	-0.053671	-0.096366	0.038826	-0.057997	-0.079972	0.010877	-0.023866	-0.056705	-0.014421	-0.153370	0.000953	-0.128575	-0.136851	0.063173	-0.101140	-0.021273	-0.297689	0.072471	-0.022030	-0.315747	0.094662	0.028820	-0.447424	0.595488	0.028820	-0.447424	0.595488	0.030671	-0.411471	0.604942	0.038133	-0.242838	-0.051567	0.038333	-0.236367	-0.070472	0.038062	-0.243210	-0.059706
2265	181.120000	-0.017514	-0.239335	0.110258	-0.022482	-0.324823	0.125257	-0.017593	-0.316874	0.124654	-0.027370	-0.332773	0.125860	-0.034679	-0.152087	0.024949	-0.031633	-0.169076	0.024756	0.043697	-0.142120	0.028353	0.048011	-0.104125	0.048383	-0.047171	-0.097346	0.046000	-0.052062	-0.086333	0.042683	-0.057663	-0.078788	0.005280	-0.021472	-0.061292	-0.018845	-0.151240	0.000612	-0.135555	-0.142679	0.047897	-0.114342	-0.018617	-0.254272	0.054493	-0.020946	-0.308146	0.109442	0.034378	-0.343382	0.137639	0.038188	-0.155265	-0.726200	0.034755	-0.338697	0.160028	0.043874	-0.162335	-0.144132	0.043749	-0.162792	-0.159943	0.044001	-0.159975	-0.142589
2266	181.200000	-0.013756	-0.209887	0.113824	-0.017031	-0.301089	0.124391	-0.012608	-0.292440	0.126334	-0.021454	-0.309739	0.122448	-0.029019	-0.138686	0.027522	-0.030459	-0.160502	0.022685	0.052370	-0.125099	0.030308	0.056183	-0.085487	0.055389	-0.041845	-0.081203	0.047791	-0.049495	-0.073710	0.046376	-0.053211	-0.075820	-0.005916	-0.014711	-0.069580	-0.028400	-0.141600	-0.010254	-0.141459	-0.139444	0.019146	-0.134661	-0.013756	-0.209887	0.113824	-0.013756	-0.209887	0.113824	0.052370	-0.125099	0.030308	0.052370	-0.125099	0.030308	0.052370	-0.125099	0.030308	0.056183	-0.085487	0.055389	0.056183	-0.085487	0.055389	0.056183	-0.085487	0.055389
2267	181.280000	-0.014506	-0.192192	0.118381	-0.018039	-0.284022	0.127825	-0.014294	-0.276114	0.130533	-0.021783	-0.291929	0.125116	-0.028945	-0.127287	0.032656	-0.033311	-0.154191	0.025360	0.051142	-0.112169	0.034158	0.056642	-0.075158	0.057515	-0.042736	-0.071729	0.051097	-0.050496	-0.066639	0.048178	-0.054076	-0.061462	-0.009999	-0.014958	-0.066649	-0.030323	-0.142127	-0.010944	-0.136436	-0.139287	0.006059	-0.139639	-0.014506	-0.192192	0.118381	-0.014506	-0.192192	0.118381	0.051142	-0.112169	0.034158	0.051142	-0.112169	0.034158	0.051142	-0.112169	0.034158	0.056642	-0.075158	0.057515	0.056642	-0.075158	0.057515	0.056642	-0.075158	0.057515
2268	181.360000	-0.018347	-0.193625	0.121151	-0.022570	-0.278443	0.134960	-0.019450	-0.272919	0.135750	-0.025690	-0.283966	0.134169	-0.030301	-0.123443	0.037604	-0.036679	-0.156869	0.033410	0.039943	-0.112216	0.037456	0.047737	-0.081100	0.052982	-0.047310	-0.068605	0.055773	-0.052949	-0.066242	0.050319	-0.063003	-0.041666	-0.004001	-0.025715	-0.052825	-0.022163	-0.159571	-0.000529	-0.126705	-0.156168	0.008055	-0.130602	-0.018347	-0.193625	0.121151	-0.018347	-0.193625	0.121151	0.039943	-0.112216	0.037456	0.039943	-0.112216	0.037456	0.039943	-0.112216	0.037456	0.047737	-0.081100	0.052982	0.047737	-0.081100	0.052982	0.047737	-0.081100	0.052982
2269	181.440000	-0.020345	-0.203662	0.120236	-0.023751	-0.279290	0.140604	-0.020958	-0.276690	0.138703	-0.026545	-0.281890	0.142505	-0.026936	-0.127721	0.039737	-0.037144	-0.168760	0.041464	0.029823	-0.124189	0.038293	0.037827	-0.097181	0.045752	-0.048732	-0.067533	0.059674	-0.052970	-0.068950	0.053985	-0.072791	-0.030442	0.004075	-0.039072	-0.041436	-0.012639	-0.180434	0.007558	-0.122419	-0.183319	0.010033	-0.123469	-0.020345	-0.203662	0.120236	-0.020345	-0.203662	0.120236	0.029823	-0.124189	0.038293	0.029823	-0.124189	0.038293	0.029823	-0.124189	0.038293	0.037827	-0.097181	0.045752	0.037827	-0.097181	0.045752	0.037827	-0.097181	0.045752
2270	181.520000	-0.019378	-0.211044	0.117939	-0.021125	-0.281856	0.142143	-0.018436	-0.280866	0.138944	-0.023814	-0.282847	0.145343	-0.021554	-0.135132	0.039568	-0.035929	-0.180741	0.044880	0.027377	-0.135833	0.037634	0.034003	-0.109954	0.041392	-0.046670	-0.068182	0.061138	-0.051147	-0.072280	0.056972	-0.076501	-0.031902	0.007405	-0.046009	-0.040293	-0.009083	-0.189974	0.007206	-0.123592	-0.201041	0.007954	-0.124861	-0.019378	-0.211044	0.117939	-0.019378	-0.211044	0.117939	0.027377	-0.135833	0.037634	0.027377	-0.135833	0.037634	0.027377	-0.135833	0.037634	0.034003	-0.109954	0.041392	0.034003	-0.109954	0.041392	0.034003	-0.109954	0.041392
2271	181.600000	-0.017845	-0.214233	0.117173	-0.018765	-0.285191	0.141444	-0.016111	-0.283841	0.138447	-0.021419	-0.286541	0.144442	-0.019492	-0.140785	0.039312	-0.035765	-0.186681	0.044471	0.029846	-0.140178	0.037299	0.035422	-0.115175	0.041144	-0.044987	-0.071450	0.060866	-0.050111	-0.076066	0.057555	-0.075061	-0.038658	0.006946	-0.046188	-0.045180	-0.010170	-0.188685	0.002499	-0.124245	-0.202902	0.005555	-0.128925	-0.017845	-0.214233	0.117173	-0.017845	-0.214233	0.117173	0.029846	-0.140178	0.037299	0.029846	-0.140178	0.037299	0.029846	-0.140178	0.037299	0.035422	-0.115175	0.041144	0.035422	-0.115175	0.041144	0.035422	-0.115175	0.041144
2272	181.680000	-0.017490	-0.217299	0.117456	-0.018281	-0.289193	0.140720	-0.015620	-0.286602	0.138241	-0.020943	-0.291784	0.143199	-0.020405	-0.143802	0.039579	-0.037042	-0.189800	0.043352	0.032418	-0.143458	0.038147	0.037117	-0.119014	0.041962	-0.044616	-0.076615	0.060668	-0.050056	-0.081143	0.056958	-0.073468	-0.044377	0.006391	-0.045203	-0.050306	-0.010982	-0.185406	-0.003127	-0.122626	-0.199464	0.001471	-0.130228	-0.017490	-0.217299	0.117456	-0.017490	-0.217299	0.117456	0.032418	-0.143458	0.038147	0.032418	-0.143458	0.038147	0.032418	-0.143458	0.038147	0.037117	-0.119014	0.041962	0.037117	-0.119014	0.041962	0.037117	-0.119014	0.041962
2273	181.760000	-0.017452	-0.224526	0.117139	-0.017781	-0.295714	0.140343	-0.014986	-0.292513	0.138214	-0.020577	-0.298916	0.142472	-0.020697	-0.148638	0.039258	-0.038053	-0.197131	0.042831	0.034106	-0.154319	0.039871	0.037565	-0.128199	0.041472	-0.043839	-0.084447	0.061332	-0.049592	-0.088847	0.057077	-0.073978	-0.051029	0.006877	-0.045919	-0.056582	-0.010174	-0.185020	-0.009774	-0.121625	-0.200851	-0.007051	-0.130338	-0.017452	-0.224526	0.117139	-0.017452	-0.224526	0.117139	0.034106	-0.154319	0.039871	0.034106	-0.154319	0.039871	0.034106	-0.154319	0.039871	0.037565	-0.128199	0.041472	0.037565	-0.128199	0.041472	0.037565	-0.128199	0.041472
2274	181.840000	-0.015926	-0.238435	0.116693	-0.015593	-0.309174	0.140483	-0.012536	-0.306499	0.138785	-0.018649	-0.311850	0.142180	-0.018698	-0.162526	0.038074	-0.037167	-0.212452	0.043229	0.036401	-0.171417	0.040377	0.039906	-0.144706	0.040506	-0.042481	-0.096545	0.062168	-0.048597	-0.099562	0.058169	-0.075405	-0.063407	0.008262	-0.046965	-0.066793	-0.009595	-0.187371	-0.017419	-0.122956	-0.207720	-0.015438	-0.133258	-0.015926	-0.238435	0.116693	-0.015926	-0.238435	0.116693	0.036401	-0.171417	0.040377	0.036401	-0.171417	0.040377	0.036401	-0.171417	0.040377	0.039906	-0.144706	0.040506	0.039906	-0.144706	0.040506	0.039906	-0.144706	0.040506
2275	181.920000	-0.013825	-0.254298	0.116927	-0.013163	-0.326723	0.141327	-0.009843	-0.324708	0.139993	-0.016483	-0.328738	0.142661	-0.015905	-0.181670	0.037540	-0.035224	-0.229275	0.044772	0.039773	-0.184330	0.038223	0.045047	-0.162078	0.040815	-0.041957	-0.108540	0.062250	-0.048035	-0.109951	0.059233	-0.076597	-0.078300	0.010778	-0.047401	-0.076994	-0.009394	-0.189716	-0.025186	-0.124761	-0.213580	-0.017975	-0.138093	-0.013825	-0.254298	0.116927	-0.013825	-0.254298	0.116927	0.039773	-0.184330	0.038223	0.039773	-0.184330	0.038223	0.039773	-0.184330	0.038223	0.045047	-0.162078	0.040815	0.045047	-0.162078	0.040815	0.045047	-0.162078	0.040815
2276	182.000000	-0.014624	-0.261095	0.116105	-0.013505	-0.334827	0.141220	-0.009782	-0.332430	0.140010	-0.017229	-0.337224	0.142429	-0.015610	-0.186263	0.038166	-0.035462	-0.233379	0.045241	0.043013	-0.189021	0.037818	0.047694	-0.167688	0.041669	-0.041949	-0.113777	0.061768	-0.047873	-0.116153	0.059295	-0.078150	-0.085809	0.013098	-0.047772	-0.080719	-0.007665	-0.188683	-0.030921	-0.124491	-0.210565	-0.018951	-0.138164	-0.014624	-0.261095	0.116105	-0.014624	-0.261095	0.116105	0.043013	-0.189021	0.037818	0.043013	-0.189021	0.037818	0.043013	-0.189021	0.037818	0.047694	-0.167688	0.041669	0.047694	-0.167688	0.041669	0.047694	-0.167688	0.041669
